<svg width="105" height="88" viewBox="0 0 105 88" fill="none" xmlns="http://www.w3.org/2000/svg">
<path d="M88.5288 19.4662L74.2921 31.1863L29.5323 67.6425C25.8158 70.6696 20.3259 67.5093 21.077 62.7752C21.3169 61.2635 22.2079 59.9332 23.5146 59.1359L88.5288 19.4662Z" fill="#266FFF"/>
<path d="M90.5172 74.7147C91.6443 74.9411 91.4793 76.6006 90.3296 76.6005L26.2479 72.9309C22.9396 72.7414 20.5552 69.6816 21.1799 66.4273C21.7539 63.4374 24.6551 61.4887 27.64 62.0881L90.5172 74.7147Z" fill="#266FFF"/>
<path d="M72.5709 16.0346C70.69 15.7936 69.3294 14.0553 69.9263 12.2555C70.6658 10.0259 71.8429 7.95347 73.4005 6.16502C75.714 3.50866 78.7633 1.59799 82.1627 0.674622C85.5621 -0.248741 89.159 -0.143322 92.4985 0.977541C95.838 2.09841 98.7701 4.18438 100.924 6.97168C103.078 9.75897 104.357 13.1224 104.6 16.6366C104.842 20.1509 104.037 23.6581 102.286 26.7148C100.535 29.7714 97.9173 32.2403 94.7634 33.8091C92.6399 34.8653 90.3377 35.4816 87.9936 35.6349C86.1014 35.7587 84.7625 34.0037 85.0035 32.1228C85.2446 30.2419 86.9946 28.9679 88.858 28.6167C89.8412 28.4314 90.7996 28.1112 91.7051 27.6608C93.6431 26.6968 95.2517 25.1799 96.3274 23.3017C97.4032 21.4235 97.8979 19.2685 97.749 17.1092C97.6 14.9499 96.8141 12.8833 95.4906 11.1706C94.1671 9.45797 92.3654 8.17625 90.3135 7.48753C88.2615 6.79882 86.0514 6.73405 83.9627 7.3014C81.8739 7.86876 80.0003 9.04277 78.5788 10.675C77.9145 11.4376 77.363 12.2843 76.9357 13.189C76.1259 14.9036 74.4517 16.2757 72.5709 16.0346Z" fill="#266FFF"/>
<path d="M18.4034 25.3914C16.5337 25.2728 16.4812 22.5404 18.3449 22.35L82.3951 16.1465C86.0728 15.7903 89.1954 18.811 88.9614 22.4985L88.8757 23.8505C88.6658 27.1576 85.8148 29.6684 82.5078 29.4585L18.4034 25.3914Z" fill="#F6A01F"/>
</svg>
