<svg width="24" height="24" viewBox="0 0 24 24" fill="none" xmlns="http://www.w3.org/2000/svg">
<path d="M1 2.99999V5H23V2.99999C22.9997 2.46964 22.7889 1.96109 22.414 1.58607C22.0389 1.21106 21.5304 1.00026 21 1H3C2.46965 1.00026 1.9611 1.21106 1.58608 1.58607C1.21107 1.96109 1.00027 2.46964 1 2.99999ZM4.00701 4.00799C3.80918 4.0082 3.61574 3.94971 3.45116 3.83995C3.28658 3.73019 3.15826 3.57408 3.08242 3.39137C3.00657 3.20866 2.98663 3.00756 3.02509 2.81352C3.06357 2.61947 3.15873 2.4412 3.29854 2.30124C3.43835 2.1613 3.61654 2.06595 3.81055 2.02728C4.00455 1.98862 4.20567 2.00836 4.38846 2.08402C4.57124 2.15968 4.72748 2.28785 4.83741 2.45232C4.94733 2.6168 5.00601 2.81017 5.00601 3.008C5.00601 3.27322 4.90065 3.52757 4.71311 3.7151C4.52557 3.90264 4.27122 4.00799 4.006 4.00799H4.00701ZM7.00401 4.007C6.80622 4.007 6.61288 3.94834 6.44843 3.83846C6.28399 3.72859 6.15581 3.5724 6.08013 3.38968C6.00443 3.20696 5.98463 3.00588 6.02322 2.81191C6.0618 2.61792 6.15705 2.43974 6.29689 2.29989C6.43675 2.16004 6.61493 2.0648 6.80891 2.02621C7.00289 1.98763 7.20396 2.00743 7.38669 2.08312C7.56941 2.1588 7.72559 2.28697 7.83548 2.45143C7.94535 2.61587 8.004 2.80921 8.004 3.007C8.00348 3.27205 7.89795 3.52609 7.71053 3.71352C7.52311 3.90094 7.26906 4.00647 7.00401 4.007Z" fill="white"/>
<path d="M1 6V20C1 20.5304 1.21072 21.0391 1.58579 21.4142C1.96086 21.7893 2.46957 22 3 22H21C21.5304 22 22.0391 21.7893 22.4142 21.4142C22.7893 21.0391 23 20.5304 23 20V6H1ZM21 20H3V8H21V20Z" fill="white"/>
<path d="M9 18L9.69998 17.3001L10.4 16.6L9.09999 15.3L7.8 14.0001L9.09999 12.7L10.4 11.4L9.69998 10.7001L9 10L6.99999 12L5 14.0001L6.99999 16L9 18Z" fill="white"/>
<path d="M13.6001 16.6L14.3002 17.3001L15.0001 18L17.0002 16L19.0001 14.0001L17.0002 12L15.0001 10L14.3002 10.7001L13.6001 11.4L14.9002 12.7L16.2001 14.0001L14.9002 15.3L13.6001 16.6Z" fill="white"/>
<path d="M9 18L9.69998 17.3001L10.4 16.6L9.09999 15.3L7.8 14.0001L9.09999 12.7L10.4 11.4L9.69998 10.7001L9 10L6.99999 12L5 14.0001L6.99999 16L9 18Z" fill="white"/>
<path d="M13.6001 16.6L14.3002 17.3001L15.0001 18L17.0002 16L19.0001 14.0001L17.0002 12L15.0001 10L14.3002 10.7001L13.6001 11.4L14.9002 12.7L16.2001 14.0001L14.9002 15.3L13.6001 16.6Z" fill="white"/>
</svg>
