<svg width="24" height="24" viewBox="0 0 24 24" fill="none" xmlns="http://www.w3.org/2000/svg">
<path d="M8.38443 2.47913C8.90952 2.3208 9.47296 2.34711 9.98112 2.55366C10.4892 2.76019 10.9111 3.13453 11.1768 3.61433L11.2668 3.79313L12.06 5.55833C12.3011 6.09411 12.3794 6.68894 12.285 7.26885C12.1908 7.84876 11.9281 8.38814 11.5296 8.81993L11.3712 8.97833L10.1184 10.1459C9.89278 10.3595 10.062 11.1863 10.8792 12.5999C11.6124 13.8719 12.2112 14.4659 12.504 14.4983H12.5556L12.6192 14.4863L15.0792 13.7339C15.4098 13.6326 15.7626 13.6285 16.0955 13.7224C16.4284 13.8162 16.7271 14.0039 16.956 14.2631L17.0664 14.4011L18.6936 16.6571C19.013 17.0992 19.1722 17.6368 19.1451 18.1814C19.1181 18.7261 18.9063 19.2453 18.5448 19.6535L18.3984 19.8047L17.7468 20.4215C17.1627 20.9746 16.4322 21.3484 15.6419 21.4984C14.8516 21.6483 14.0349 21.5682 13.2888 21.2675C10.9668 20.3315 8.85723 18.1931 6.94083 14.8739C5.02083 11.5463 4.22283 8.64593 4.57923 6.16193C4.68718 5.41091 4.99656 4.70316 5.47449 4.11388C5.95242 3.52459 6.58107 3.07579 7.29363 2.81513L7.52523 2.73833L8.38443 2.47913Z" fill="white"/>
</svg>
