<svg width="14" height="8" viewBox="0 0 14 8" fill="none" xmlns="http://www.w3.org/2000/svg">
<path fill-rule="evenodd" clip-rule="evenodd" d="M0.534904 0.453331C0.802838 0.182843 1.2372 0.180984 1.50514 0.45519L7.48564 6.56022C7.75358 6.8335 7.75266 7.27502 7.48382 7.54644C7.35031 7.68122 7.17473 7.75 7.00007 7.75C6.82358 7.75 6.64801 7.68122 6.5145 7.54458L0.53399 1.43954C0.266056 1.16627 0.26697 0.724748 0.534904 0.453331ZM12.4943 0.455283C12.7622 0.181077 13.1966 0.182936 13.4645 0.453424C13.7334 0.724841 13.7343 1.16636 13.4672 1.43964L9.49579 5.49417C9.36228 5.63081 9.18579 5.69959 9.01022 5.69959C8.83556 5.69959 8.65998 5.63081 8.52647 5.49603C8.25762 5.22461 8.25671 4.78309 8.52373 4.50981L12.4943 0.455283Z" fill="black"/>
</svg>
