<svg width="8" height="8" viewBox="0 0 8 8" fill="none" xmlns="http://www.w3.org/2000/svg">
<path d="M4.754 0.912852C4.79267 0.95052 4.958 1.09275 5.094 1.22524C5.94933 2.00199 7.34933 4.02829 7.77667 5.08885C7.84533 5.24992 7.99067 5.65713 8 5.8747C8 6.08317 7.952 6.2819 7.85467 6.47155C7.71867 6.70795 7.50467 6.89759 7.252 7.0015C7.07667 7.0684 6.552 7.17231 6.54267 7.17231C5.96867 7.27622 5.036 7.33337 4.00533 7.33337C3.02333 7.33337 2.12867 7.27622 1.546 7.19114C1.53667 7.1814 0.884666 7.07749 0.661333 6.96383C0.253333 6.75536 8.61311e-08 6.34815 1.24229e-07 5.91236L1.27522e-07 5.87469C0.0099999 5.59088 0.263334 4.99403 0.272667 4.99403C0.700667 3.99062 2.032 2.01108 2.91667 1.2155C2.91667 1.2155 3.144 0.991435 3.286 0.894017C3.49 0.742044 3.74267 0.666708 3.99533 0.666708C4.27733 0.666708 4.54 0.751786 4.754 0.912852Z" fill="#00D615"/>
</svg>
